<svg width="932" height="200" viewBox="0 0 932 200" fill="none" xmlns="http://www.w3.org/2000/svg">
<path d="M319.935 197.368H253.356V190.526L263.882 186.579C271.514 183.421 273.882 180.526 273.882 171.842V40.2632C273.882 29.4737 270.987 25.7895 263.619 24.2105L253.882 22.1053V15.2632L293.356 0L299.672 3.68421V171.842C299.672 180.526 301.777 183.421 309.408 186.579L319.935 190.526V197.368Z" fill="black"/>
<path fill-rule="evenodd" clip-rule="evenodd" d="M339.797 163.421C339.797 185.526 355.85 200 380.586 200C394.797 200 409.534 192.368 418.744 180.526L425.323 200H431.113L465.323 186.579L464.008 179.737L454.534 178.684C445.85 177.632 443.481 174.474 443.481 165.263V111.053C443.481 76.3158 428.744 62.6316 396.113 62.6316C378.218 62.6316 361.902 67.8947 344.008 80L351.902 103.421H361.376C366.639 88.1579 369.797 83.1579 374.271 80.2631C379.534 76.8421 386.113 75.5263 392.955 75.5263C409.271 75.5263 417.692 86.3158 417.692 110.526V118.158C400.85 118.947 384.797 121.316 372.429 125.526C351.639 132.632 339.797 145.789 339.797 163.421ZM417.692 168.421C409.797 177.105 399.534 181.579 390.587 181.579C376.113 181.579 366.639 172.895 366.639 159.211C366.639 146.053 374.534 137.105 389.534 132.895C396.902 130.789 406.639 129.474 417.692 128.947V168.421Z" fill="black"/>
<path d="M543.761 197.368H477.708V190.526L488.234 186.579C496.129 183.421 498.234 180.263 498.234 171.842V104.211C498.234 93.421 495.603 88.9474 487.971 87.3684L478.235 85.2632V78.9474L515.603 62.6316L521.655 66.3158V92.1053C534.55 73.6842 552.445 62.6316 570.603 62.6316C597.971 62.6316 615.077 81.8421 615.077 113.421V171.842C615.077 180.263 617.182 183.421 624.813 186.579L635.34 190.526V197.368H569.55V190.526L580.077 186.579C587.182 183.684 589.287 180.789 589.287 171.842V118.947C589.287 96.0526 578.761 83.9474 559.55 83.9474C546.392 83.9474 532.971 91.5789 524.024 103.421V171.842C524.024 180.789 525.866 183.684 533.234 186.579L543.761 190.526V197.368Z" fill="black"/>
<path d="M700.969 200C684.127 200 665.969 195 653.6 186.053L656.758 155.526H663.863L669.916 167.895C676.758 180.526 687.811 187.632 702.285 187.632C717.811 187.632 728.337 179.737 728.337 166.842C728.337 156.053 721.495 148.421 694.653 137.895C667.811 127.368 656.232 114.737 656.232 98.1579C656.232 76.8421 674.916 62.6316 703.074 62.6316C717.811 62.6316 734.39 66.3158 746.495 71.8421L743.6 100.263H736.495C732.811 93.421 729.916 89.2105 726.232 85C720.706 78.6842 712.285 75 703.337 75C688.864 75 679.653 81.8421 679.653 91.5789C679.653 101.579 687.285 107.632 713.337 118.947C741.758 131.053 752.285 143.684 752.285 160C752.285 183.947 731.495 200 700.969 200Z" fill="black"/>
<path d="M170.862 197.368H237.441V190.526L226.915 186.579C219.283 183.421 217.178 180.526 217.178 171.842V66.3158L210.862 62.6316L171.388 78.1579V84.7368L181.125 86.8421C188.494 88.1579 191.388 92.1053 191.388 103.158V171.842C191.388 180.526 189.02 183.421 181.388 186.579L170.862 190.526V197.368Z" fill="black"/>
<path fill-rule="evenodd" clip-rule="evenodd" d="M78.508 197.368H0.613281V190.263L10.8764 186.053C19.5607 182.368 21.4027 179.211 21.4027 171.579V42.8947C21.4027 35.2631 19.5607 32.1053 10.8764 28.421L0.613281 24.2105V17.1053H79.5606C119.034 17.1053 141.666 33.6842 141.666 62.6316C141.666 82.6316 126.929 98.421 105.613 103.684C132.719 108.421 149.561 125.263 149.561 148.421C149.561 179.211 123.508 197.368 78.508 197.368ZM49.0343 30.5263V98.1579H70.8764C95.3501 98.1579 112.192 83.6842 112.192 63.1579C112.192 42.6316 96.6659 30.5263 69.5607 30.5263H49.0343ZM49.0343 111.579V183.947H75.3501C103.508 183.947 120.35 170.526 120.35 147.895C120.35 125 103.771 111.579 74.8238 111.579H49.0343Z" fill="black"/>
<path d="M198.453 6.16776C202.261 6.16776 205.349 9.25516 205.349 13.0637C205.349 16.8722 208.436 19.9596 212.245 19.9596C216.053 19.9596 219.141 23.047 219.141 26.8555V29.768C219.141 33.5765 216.053 36.6639 212.245 36.6639C208.436 36.6639 205.349 39.7513 205.349 43.5598C205.349 47.3683 202.261 50.4557 198.453 50.4557H195.54C191.732 50.4557 188.644 47.3683 188.644 43.5598C188.644 39.7513 185.557 36.6639 181.748 36.6639C177.94 36.6639 174.853 33.5765 174.853 29.768V26.8555C174.853 23.047 177.94 19.9596 181.748 19.9596C185.557 19.9596 188.644 16.8722 188.644 13.0637C188.644 9.25516 191.732 6.16776 195.54 6.16776H198.453Z" fill="#71A9FC"/>
<path d="M877.384 1.40625C887.264 1.40625 895.273 9.41556 895.273 19.2956C895.273 29.1756 903.283 37.1849 913.163 37.1849C923.043 37.1849 931.052 45.1942 931.052 55.0742V62.63C931.052 72.51 923.043 80.5193 913.163 80.5193C903.283 80.5193 895.273 88.5286 895.273 98.4086C895.273 108.289 887.264 116.298 877.384 116.298H869.828C859.948 116.298 851.939 108.289 851.939 98.4086C851.939 88.5286 843.93 80.5193 834.049 80.5193C824.169 80.5193 816.16 72.51 816.16 62.63V55.0742C816.16 45.1942 824.169 37.1849 834.049 37.1849C843.93 37.1849 851.939 29.1756 851.939 19.2956C851.939 9.41556 859.948 1.40625 869.828 1.40625H877.384Z" fill="#71A9FC"/>
<ellipse cx="873.615" cy="171.361" rx="27.3763" ry="27.3763" fill="black"/>
</svg>
